HIERARCHY
ROOT hip
{
  OFFSET 0 0 0
  CHANNELS 6 Xposition Yposition Zposition Zrotation Yrotation Xrotation
  JOINT abdomen
  {
    OFFSET 0 20.6881 -0.73152
    CHANNELS 3 Zrotation Xrotation Yrotation
    JOINT chest
    {
      OFFSET 0 11.7043 -0.48768
      CHANNELS 3 Zrotation Xrotation Yrotation
      JOINT neck
      {
        OFFSET 0 22.1894 -2.19456
        CHANNELS 3 Zrotation Xrotation Yrotation
        JOINT head
        {
          OFFSET -0.24384 7.07133 1.2192
          CHANNELS 3 Zrotation Xrotation Yrotation
          JOINT leftEye
          {
            OFFSET 4.14528 8.04674 8.04672
            CHANNELS 3 Zrotation Xrotation Yrotation
            End Site
            {
              OFFSET 1 0 0
            }
          }
          JOINT rightEye
          {
            OFFSET -3.6576 8.04674 8.04672
            CHANNELS 3 Zrotation Xrotation Yrotation
            End Site
            {
              OFFSET 1 0 0
            }
          }
        }
      }
      JOINT rCollar
      {
        OFFSET -2.68224 19.2634 -4.8768
        CHANNELS 3 Zrotation Xrotation Yrotation
        JOINT rShldr
        {
          OFFSET -8.77824 -1.95073 1.46304
          CHANNELS 3 Zrotation Xrotation Yrotation
          JOINT rForeArm
          {
            OFFSET -28.1742 -1.7115 0.48768
            CHANNELS 3 Zrotation Xrotation Yrotation
            JOINT rHand
            {
              OFFSET -22.5879 0.773209 7.07136
              CHANNELS 3 Zrotation Xrotation Yrotation
              JOINT rThumb1
              {
                OFFSET -1.2192 -0.487915 3.41376
                CHANNELS 3 Zrotation Xrotation Yrotation
                JOINT rThumb2
                {
                  OFFSET -3.37035 -0.52449 3.41376
                  CHANNELS 3 Zrotation Xrotation Yrotation
                  End Site
                  {
                    OFFSET -1.78271 -1.18214 1.43049
                  }
                }
              }
              JOINT rIndex1
              {
                OFFSET -7.75947 0.938293 5.60832
                CHANNELS 3 Zrotation Xrotation Yrotation
                JOINT rIndex2
                {
                  OFFSET -2.54057 -0.884171 1.56538
                  CHANNELS 3 Zrotation Xrotation Yrotation
                  End Site
                  {
                    OFFSET -1.62519 -0.234802 1.16502
                  }
                }
              }
              JOINT rMid1
              {
                OFFSET -8.24714 1.18213 3.41376
                CHANNELS 3 Zrotation Xrotation Yrotation
                JOINT rMid2
                {
                  OFFSET -3.10165 -0.590103 1.0647
                  CHANNELS 3 Zrotation Xrotation Yrotation
                  End Site
                  {
                    OFFSET -2.48547 -0.328903 0.83742
                  }
                }
              }
              JOINT rRing1
              {
                OFFSET -8.82822 0.546677 1.51678
                CHANNELS 3 Zrotation Xrotation Yrotation
                JOINT rRing2
                {
                  OFFSET -2.60934 -0.819778 -0.0198488
                  CHANNELS 3 Zrotation Xrotation Yrotation
                  End Site
                  {
                    OFFSET -2.33842 -0.294052 0.168128
                  }
                }
              }
              JOINT rPinky1
              {
                OFFSET -8.27202 -0.0477905 -0.4584
                CHANNELS 3 Zrotation Xrotation Yrotation
                JOINT rPinky2
                {
                  OFFSET -1.82734 -0.647385 -0.700984
                  CHANNELS 3 Zrotation Xrotation Yrotation
                  End Site
                  {
                    OFFSET -1.69225 -0.51767 -0.607171
                  }
                }
              }
            }
          }
        }
      }
      JOINT lCollar
      {
        OFFSET 2.68224 19.2634 -4.8768
        CHANNELS 3 Zrotation Xrotation Yrotation
        JOINT lShldr
        {
          OFFSET 8.77824 -1.95073 1.46304
          CHANNELS 3 Zrotation Xrotation Yrotation
          JOINT lForeArm
          {
            OFFSET 28.1742 -1.7115 0.48768
            CHANNELS 3 Zrotation Xrotation Yrotation
            JOINT lHand
            {
              OFFSET 22.5879 0.773209 7.07136
              CHANNELS 3 Zrotation Xrotation Yrotation
              JOINT lThumb1
              {
                OFFSET 1.2192 -0.487915 3.41376
                CHANNELS 3 Zrotation Xrotation Yrotation
                JOINT lThumb2
                {
                  OFFSET 3.37035 -0.52449 3.41376
                  CHANNELS 3 Zrotation Xrotation Yrotation
                  End Site
                  {
                    OFFSET 1.78271 -1.18214 1.43049
                  }
                }
              }
              JOINT lIndex1
              {
                OFFSET 7.75947 0.938293 5.60832
                CHANNELS 3 Zrotation Xrotation Yrotation
                JOINT lIndex2
                {
                  OFFSET 2.54057 -0.884171 1.56538
                  CHANNELS 3 Zrotation Xrotation Yrotation
                  End Site
                  {
                    OFFSET 1.62519 -0.234802 1.16502
                  }
                }
              }
              JOINT lMid1
              {
                OFFSET 8.24714 1.18213 3.41376
                CHANNELS 3 Zrotation Xrotation Yrotation
                JOINT lMid2
                {
                  OFFSET 3.10165 -0.590103 1.0647
                  CHANNELS 3 Zrotation Xrotation Yrotation
                  End Site
                  {
                    OFFSET 2.48547 -0.328903 0.83742
                  }
                }
              }
              JOINT lRing1
              {
                OFFSET 8.82822 0.546677 1.51678
                CHANNELS 3 Zrotation Xrotation Yrotation
                JOINT lRing2
                {
                  OFFSET 2.60934 -0.819778 -0.0198488
                  CHANNELS 3 Zrotation Xrotation Yrotation
                  End Site
                  {
                    OFFSET 2.33842 -0.294052 0.168128
                  }
                }
              }
              JOINT lPinky1
              {
                OFFSET 8.27202 -0.0477905 -0.4584
                CHANNELS 3 Zrotation Xrotation Yrotation
                JOINT lPinky2
                {
                  OFFSET 1.82734 -0.647385 -0.700984
                  CHANNELS 3 Zrotation Xrotation Yrotation
                  End Site
                  {
                    OFFSET 1.69225 -0.51767 -0.607171
                  }
                }
              }
            }
          }
        }
      }
    }
  }
  JOINT rButtock
  {
    OFFSET -8.77824 4.35084 1.2192
    CHANNELS 3 Zrotation Xrotation Yrotation
    JOINT rThigh
    {
      OFFSET 0 -1.70687 -2.19456
      CHANNELS 3 Zrotation Xrotation Yrotation
      JOINT rShin
      {
        OFFSET 0 -36.8199 0.73152
        CHANNELS 3 Zrotation Xrotation Yrotation
        JOINT rFoot
        {
          OFFSET 0.73152 -45.1104 -5.12064
          CHANNELS 3 Zrotation Xrotation Yrotation
          End Site
          {
            OFFSET -1.1221 -3.69964 12.103
          }
        }
      }
    }
  }
  JOINT lButtock
  {
    OFFSET 8.77824 4.35084 1.2192
    CHANNELS 3 Zrotation Xrotation Yrotation
    JOINT lThigh
    {
      OFFSET 0 -1.70687 -2.19456
      CHANNELS 3 Zrotation Xrotation Yrotation
      JOINT lShin
      {
        OFFSET 0 -36.8199 0.73152
        CHANNELS 3 Zrotation Xrotation Yrotation
        JOINT lFoot
        {
          OFFSET -0.73152 -45.1104 -5.12064
          CHANNELS 3 Zrotation Xrotation Yrotation
          End Site
          {
            OFFSET 1.1221 -3.69964 12.103
          }
        }
      }
    }
  }
}
MOTION
Frames:	4
Frame Time:	0.00833333
40.1203 85.5886 206.733 0.0 0.0 0.0 2.72259 0.000518372 0.0736201 0.750833 0.0131642 0.129928 -3.4839e-14 0.0 1.49089e-16 -1.0443e-13 3.18055e-15 5.93248e-16 -0.0 0.0 0.0 -0.0 0.0 0.0 -1.72463e-14 2.85365e-17 1.98785e-16 -3.61537e-13 5.59082e-16 9.93923e-16 -6.2807e-12 1.89004e-12 8.90555e-14 -7.17103e-11 -1.76769e-12 1.81292e-13 -1.69179e-10 2.63576e-13 6.17028e-13 -2.92166e-10 4.48458e-13 1.06469e-12 -1.69172e-10 2.68359e-13 6.10667e-13 7.73091 5.47488 0.417314 -1.69178e-10 2.64384e-13 6.13847e-13 2.90554 0.965183 0.102902 -1.69166e-10 2.63887e-13 6.16232e-13 10.2786 0.731801 0.0259123 -1.69181e-10 2.61203e-13 6.26569e-13 2.22167 -0.733487 -0.20892 -1.7244e-14 3.3972e-17 0.0 -3.64635e-13 9.19379e-16 -3.97569e-16 -6.25332e-12 -1.85546e-12 5.08889e-14 -7.17405e-11 1.99547e-12 2.44903e-13 -1.69184e-10 2.99867e-13 6.23389e-13 -2.92168e-10 5.1525e-13 1.09968e-12 -1.69191e-10 3.02948e-13 6.36111e-13 -7.73091 5.47488 -0.417314 -1.69186e-10 3.00364e-13 6.23389e-13 -2.90554 0.965183 -0.102902 -1.69199e-10 3.00861e-13 6.2975e-13 -10.2786 0.731801 -0.0259123 -1.69181e-10 2.98972e-13 6.23389e-13 -2.22167 -0.733487 0.20892 -2.03217e-16 0.0 -3.88251e-19 2.53305 -8.65198 -0.274477 0.00739463 10.0933 0.189513 -0.516969 -1.45222 0.028624 2.03217e-16 0.0 3.88251e-19 1.60796 -1.93183 -0.00953423 0.00859887 -2.07865 0.0706298 0.458765 3.99948 -0.132461
41.6528 84.7383 198.506 179.806 1.5718 -170.899 1.04527 -2.6389 1.00916 2.06011 1.61195 0.351419 -0.956148 1.81292 0.0951101 1.82392 0.108496 -0.313765 -0.0 0.0 0.0 -0.0 0.0 0.0 -4.11489e-15 2.6689e-14 4.01413e-15 21.8174 -2.42134 -1.53522 -3.53511 -1.49059 5.64077 0.0781249 6.20684 0.853937 -9.22961e-11 1.4574e-10 -3.81852e-10 -1.66052e-10 2.54999e-10 -6.60149e-10 -9.22886e-11 1.45743e-10 -3.8186e-10 7.73091 5.47488 0.417314 -9.22952e-11 1.4574e-10 -3.81853e-10 2.90554 0.965183 0.102902 -9.22819e-11 1.45739e-10 -3.81853e-10 10.2786 0.731801 0.0259123 -9.22983e-11 1.45737e-10 -3.81844e-10 2.22167 -0.733487 -0.20892 -4.09692e-15 2.66932e-14 3.78234e-15 -20.9722 4.72228 -0.994701 3.3 -1.35354 -5.30207 -0.0918565 6.73301 -0.922848 -3.6988e-10 -1.04922e-11 2.46502e-10 -6.34009e-10 -1.25512e-11 4.30993e-10 -3.69886e-10 -1.04883e-11 2.46518e-10 -7.73091 5.47488 -0.417314 -3.69881e-10 -1.04907e-11 2.46502e-10 -2.90554 0.965183 -0.102902 -3.69892e-10 -1.04904e-11 2.46506e-10 -10.2786 0.731801 -0.0259123 -3.69875e-10 -1.04915e-11 2.465e-10 -2.22167 -0.733487 0.20892 -2.03217e-16 0.0 -3.88251e-19 2.21451 -9.7724 0.694875 0.00396127 11.8518 0.218445 -0.607921 -4.55375 -1.1692 2.03217e-16 0.0 3.88251e-19 1.58925 -3.20192 -2.33306 0.00496476 -0.345149 0.0233623 0.400267 0.239496 -0.680312
41.6667 84.7388 198.507 179.851 1.6408 -170.903 -0.640008 -5.42568 2.00267 3.43171 3.30255 0.585649 -1.97897 3.73247 0.195565 3.75501 0.217213 -0.644479 -0.0 0.0 0.0 -0.0 0.0 0.0 1.07753e-14 5.44299e-14 8.92357e-15 44.7194 -4.97563 -3.15874 -6.9602 -3.0216 11.6247 -0.0450698 12.7632 1.79056 -2.20786e-11 3.03469e-10 -7.73764e-10 -5.1578e-11 5.30831e-10 -1.33748e-09 -2.20707e-11 3.03471e-10 -7.73773e-10 7.73091 5.47488 0.417314 -2.20779e-11 3.03468e-10 -7.73763e-10 2.90554 0.965183 0.102902 -2.20636e-11 3.03468e-10 -7.73765e-10 10.2786 0.731801 0.0259123 -2.20813e-11 3.03467e-10 -7.73758e-10 2.22167 -0.733487 -0.20892 1.08121e-14 5.44329e-14 8.65334e-15 -42.9427 9.6999 -2.07023 6.52926 -2.75281 -10.9358 0.0531639 13.8285 -1.9395 -5.80242e-10 -2.87629e-11 4.93204e-10 -9.92546e-10 -3.83839e-11 8.62577e-10 -5.80247e-10 -2.87581e-11 4.93223e-10 -7.73091 5.47488 -0.417314 -5.80241e-10 -2.87603e-11 4.93204e-10 -2.90554 0.965183 -0.102902 -5.8025e-10 -2.87602e-11 4.93206e-10 -10.2786 0.731801 -0.0259123 -5.80235e-10 -2.87605e-11 4.93199e-10 -2.22167 -0.733487 0.20892 -2.03217e-16 0.0 -3.88251e-19 1.91477 -10.9514 1.73813 -0.00168089 13.7095 0.249639 -0.845492 -7.81818 -2.44767 2.03217e-16 0.0 3.88251e-19 1.44977 -4.53532 -4.8075 0.00418001 1.48776 -0.0266285 0.260484 -3.73996 -1.2597
41.6784 84.7372 198.51 179.898 1.6648 -170.893 -2.04876 -7.90892 2.90469 4.64145 4.80914 0.796789 -2.88657 5.4387 0.286477 5.47531 0.32545 -0.941309 -0.0 0.0 0.0 -0.0 0.0 0.0 2.21479e-14 8.00098e-14 1.16448e-14 65.0609 -7.24309 -4.63863 -9.73699 -4.2987 16.9657 -0.346488 18.6035 2.6873 6.14701e-11 4.36692e-10 -1.14679e-09 8.61751e-11 7.641e-10 -1.98258e-09 6.14783e-11 4.36693e-10 -1.1468e-09 7.73091 5.47488 0.417314 6.14706e-11 4.3669e-10 -1.14679e-09 2.90554 0.965183 0.102902 6.14857e-11 4.3669e-10 -1.14679e-09 10.2786 0.731801 0.0259123 6.14671e-11 4.3669e-10 -1.14679e-09 2.22167 -0.733487 -0.20892 2.21973e-14 8.00117e-14 1.1347e-14 -62.4118 14.1495 -3.06711 9.15773 -3.92174 -15.9401 0.411006 20.1773 -2.92937 -7.71272e-10 -3.20763e-11 7.3826e-10 -1.31769e-09 -3.86842e-11 1.29078e-09 -7.71277e-10 -3.20708e-11 7.38281e-10 -7.73091 5.47488 -0.417314 -7.7127e-10 -3.20727e-11 7.3826e-10 -2.90554 0.965183 -0.102902 -7.71277e-10 -3.20728e-11 7.3826e-10 -10.2786 0.731801 -0.0259123 -7.71264e-10 -3.20724e-11 7.38252e-10 -2.22167 -0.733487 0.20892 -2.03217e-16 0.0 -3.88251e-19 1.69353 -12.0026 2.65517 -0.00845607 15.3689 0.278153 -1.18471 -10.7387 -3.6172 2.03217e-16 0.0 3.88251e-19 1.24234 -5.70744 -7.00409 0.00627481 3.12186 -0.0711866 0.0662781 -7.27692 -1.79107
